<svg xmlns="http://www.w3.org/2000/svg" width="77.134" height="35" viewBox="0 0 77.134 35"><defs><style>.a{fill:#444d50;}.b{fill:#46bfe2;}</style></defs><path class="a" d="M48.387,88.038c0,.39-.43.626-1.565.626-2.192,0-3.523-1.252-3.523-4.149v-14.4a.519.519,0,0,1,.588-.586H46.2a.547.547,0,0,1,.586.626v13.97c0,1.018.236,1.684,1.1,1.84a.548.548,0,0,1,.508.548Z" transform="translate(-43.299 -63.095)"/><path class="a" d="M604.5,84.653c0,.352-.47.666-1.448.666-6.223,0-3.8-9.2-9.941-9.2h-2.857v8.494a.519.519,0,0,1-.588.586H587.44a.519.519,0,0,1-.586-.586V66.4a.518.518,0,0,1,.586-.586h2.231a.519.519,0,0,1,.588.586v7.261h2.857c4.227,0,5.831-4.109,5.831-6.732a.519.519,0,0,1,.586-.586h2.035a.548.548,0,0,1,.588.626c0,3.6-1.683,6.732-4.931,7.826,4.031,1.684,2.857,7.866,6.888,7.866.274,0,.392.158.392.588Z" transform="translate(-527.371 -59.784)"/><path class="b" d="M323.258,71.751a6.345,6.345,0,0,1,0,12.691H312.62a6.345,6.345,0,1,1,0-12.691h10.638m0-3.263H312.62a9.608,9.608,0,1,0,0,19.217h10.638a9.608,9.608,0,0,0,0-19.217Z" transform="translate(-274.59 -62.17)"/><path class="a" d="M110.294,68.8a9.556,9.556,0,0,0-6.615,2.681,3.575,3.575,0,0,0-3.356-2.563c-1.214,0-1.566.236-1.566.626v1.37c0,.586.352.664.508.7.94.2,1.1,1.1,1.1,1.8v23.4a.548.548,0,0,0,.588.626h2.309c.392,0,.548-.2.548-.586V85.44a9.541,9.541,0,0,0,6.488,2.576,9.608,9.608,0,0,0,0-19.217Zm0,15.954a6.345,6.345,0,1,1,6.345-6.345A6.353,6.353,0,0,1,110.294,84.753Z" transform="translate(-92.688 -62.447)"/><circle class="a" cx="1.799" cy="1.799" r="1.799"/></svg>